<?xml version="1.0" standalone="no"?>
<!DOCTYPE svg PUBLIC "-//W3C//DTD SVG 20010904//EN"
 "http://www.w3.org/TR/2001/REC-SVG-20010904/DTD/svg10.dtd">
<svg version="1.0" xmlns="http://www.w3.org/2000/svg"
 width="195.000000pt" height="195.000000pt" viewBox="0 0 195.000000 195.000000"
 preserveAspectRatio="xMidYMid meet">
<metadata>
Created by potrace 1.11, written by Peter Selinger 2001-2013
</metadata>
<g transform="translate(0.000000,195.000000) scale(0.100000,-0.100000)"
fill="#000000" stroke="none">
<path d="M731 1646 c-46 -16 -98 -78 -106 -126 -7 -40 7 -104 28 -131 7 -9 30
-28 51 -43 63 -43 151 -31 205 28 l24 26 217 0 c278 0 347 -17 455 -111 187
-165 183 -486 -8 -643 -94 -77 -181 -105 -325 -106 l-93 0 1 170 c2 162 3 172
24 198 37 44 46 68 46 120 0 34 -7 59 -23 83 -72 107 -212 107 -284 0 -39 -57
-27 -160 21 -200 14 -12 16 -51 16 -292 l0 -279 213 0 c247 0 299 9 421 72
302 157 421 532 267 843 -71 144 -199 257 -351 313 -73 26 -82 27 -346 32
-231 4 -275 7 -290 21 -23 19 -79 39 -108 38 -12 0 -36 -6 -55 -13z"/>
<path d="M425 1250 c-34 -22 -65 -73 -65 -107 0 -59 44 -118 100 -133 75 -20
148 27 165 108 9 43 -26 117 -66 137 -39 21 -98 19 -134 -5z"/>
<path d="M66 1045 c-56 -56 -60 -125 -10 -184 74 -88 218 -44 231 72 10 85
-49 147 -139 147 -41 0 -52 -5 -82 -35z"/>
<path d="M595 915 c-134 -47 -164 -234 -53 -319 125 -94 298 -11 298 144 0 88
-51 156 -135 179 -50 14 -61 13 -110 -4z"/>
</g>
</svg>
